<svg width="40" height="40" viewBox="0 0 40 40" fill="none" xmlns="http://www.w3.org/2000/svg">
<path d="M28.3166 8.33337L29.3666 10.6167L31.65 11.6667L29.3666 12.7167L28.3166 15L27.2666 12.7167L24.9833 11.6667L27.2666 10.6167L28.3166 8.33337ZM33.3333 23.3334C35.1666 23.3334 36.6666 21.8334 36.6666 20C36.6666 18.1667 33.3333 13.3334 33.3333 13.3334C33.3333 13.3334 30 18.1667 30 20C30 21.8334 31.5 23.3334 33.3333 23.3334ZM18.3333 10.1667V6.66671H21.6666C22.6166 6.66671 23.5 6.95004 24.25 7.41671L26.6333 5.03337C25.21 3.93544 23.4642 3.33788 21.6666 3.33337H12.5V6.66671H15V10.1834C12.0333 10.8 9.66663 12.9834 8.74996 15.8334H12.35C13.2333 14.35 14.8166 13.3334 16.6666 13.3334C19.3666 13.3334 21.5666 15.4834 21.65 18.1667L25 19.4167V18.3334C25.0004 16.4123 24.337 14.5501 23.1221 13.0619C21.9073 11.5737 20.2156 10.5509 18.3333 10.1667ZM36.6666 31.6667V33.3334L23.3333 37.5L11.6666 34.2667V36.6667H1.66663V18.3334H14.95L25.2166 22.1667C26.1315 22.5118 26.9196 23.1271 27.4763 23.9309C28.033 24.7347 28.3319 25.6889 28.3333 26.6667H31.6666C34.4333 26.6667 36.6666 28.9 36.6666 31.6667ZM8.33329 33.3334V21.6667H4.99996V33.3334H8.33329ZM33.1666 30.95C32.9 30.4 32.3166 30.0167 31.6666 30.0167H22.75C21.85 30.0167 20.9666 29.8667 20.1166 29.5834L16.15 28.2667L17.2 25.1L21.1666 26.4167C21.6833 26.5834 25 26.6667 25 26.6667C25 26.05 24.6166 25.5 24.05 25.2834L14.35 21.6667H11.6666V30.8L23.2833 34.0167L33.1666 30.95Z" fill="#1254FF"/>
</svg>
