<svg width="34" height="34" viewBox="0 0 34 34" fill="none" xmlns="http://www.w3.org/2000/svg">
<path d="M9.5 11.5734C10.0783 10.9367 11.025 10.3334 12.4167 10.3334C14.3367 10.3334 15.5733 11.6534 16.0083 13.1017C16.43 14.5134 16.175 16.26 14.975 17.465C14.5588 17.8652 14.1173 18.2382 13.6533 18.5817L13.5867 18.6334C13.12 18.9934 12.7033 19.32 12.3367 19.6834C11.9117 20.11 11.5633 20.575 11.3617 21.1667H14.9167C15.2482 21.1667 15.5661 21.2984 15.8005 21.5328C16.035 21.7672 16.1667 22.0852 16.1667 22.4167C16.1667 22.7482 16.035 23.0662 15.8005 23.3006C15.5661 23.535 15.2482 23.6667 14.9167 23.6667H9.91666C9.58514 23.6667 9.2672 23.535 9.03278 23.3006C8.79836 23.0662 8.66666 22.7482 8.66666 22.4167C8.66666 20.3384 9.54 18.945 10.5733 17.915C11.0667 17.4217 11.6033 17.0067 12.0567 16.655L12.0617 16.6517C12.5383 16.2834 12.9083 15.9967 13.2033 15.7017C13.6567 15.245 13.815 14.4934 13.6133 13.8184C13.4217 13.1834 12.9967 12.8334 12.4167 12.8334C11.8283 12.8334 11.525 13.0617 11.35 13.255C11.2476 13.368 11.1643 13.4969 11.1033 13.6367V13.6417C11.0012 13.9573 10.7779 14.2194 10.4826 14.3704C10.1872 14.5214 9.84394 14.5488 9.52833 14.4467C9.21272 14.3446 8.9506 14.1213 8.79964 13.8259C8.64867 13.5306 8.62122 13.1873 8.72333 12.8717L8.78166 12.7117C8.95291 12.2937 9.19539 11.9085 9.49833 11.5734H9.5Z" fill="#FFB21E"/>
<path d="M19.0834 10.3334C19.4149 10.3334 19.7328 10.4651 19.9673 10.6995C20.2017 10.9339 20.3334 11.2519 20.3334 11.5834V16.1667H22.8334V11.5834C22.8334 11.2519 22.9651 10.9339 23.1995 10.6995C23.4339 10.4651 23.7519 10.3334 24.0834 10.3334C24.4149 10.3334 24.7328 10.4651 24.9673 10.6995C25.2017 10.9339 25.3334 11.2519 25.3334 11.5834V22.3667C25.3334 22.6982 25.2017 23.0162 24.9673 23.2506C24.7328 23.485 24.4149 23.6167 24.0834 23.6167C23.7519 23.6167 23.4339 23.485 23.1995 23.2506C22.9651 23.0162 22.8334 22.6982 22.8334 22.3667V18.6667H19.0834C18.7519 18.6667 18.4339 18.535 18.1995 18.3006C17.9651 18.0662 17.8334 17.7482 17.8334 17.4167V11.5834C17.8334 11.2519 17.9651 10.9339 18.1995 10.6995C18.4339 10.4651 18.7519 10.3334 19.0834 10.3334Z" fill="#FFB21E"/>
<path d="M33.6667 17C33.6667 7.79504 26.205 0.333374 17 0.333374C7.79504 0.333374 0.333374 7.79504 0.333374 17C0.333374 26.205 7.79504 33.6667 17 33.6667C26.205 33.6667 33.6667 26.205 33.6667 17ZM2.83337 17C2.83337 13.2428 4.32593 9.63946 6.9827 6.9827C9.63946 4.32593 13.2428 2.83337 17 2.83337C20.7573 2.83337 24.3606 4.32593 27.0174 6.9827C29.6742 9.63946 31.1667 13.2428 31.1667 17C31.1667 20.7573 29.6742 24.3606 27.0174 27.0174C24.3606 29.6742 20.7573 31.1667 17 31.1667C13.2428 31.1667 9.63946 29.6742 6.9827 27.0174C4.32593 24.3606 2.83337 20.7573 2.83337 17Z" fill="#FFB21E"/>
</svg>
