<svg width="40" height="40" viewBox="0 0 40 40" fill="none" xmlns="http://www.w3.org/2000/svg">
<path d="M18.3333 21.6667V15C18.3333 14.0833 17.5833 13.3333 16.6666 13.3333H9.99996V10H16.6666C17.5833 10 18.3333 9.25 18.3333 8.33333C18.3333 7.41667 17.5833 6.66667 16.6666 6.66667H14.1666C14.1666 5.75 13.4166 5 12.5 5C11.5833 5 10.8333 5.75 10.8333 6.66667H8.33329C7.41663 6.66667 6.66663 7.41667 6.66663 8.33333V15C6.66663 15.9167 7.41663 16.6667 8.33329 16.6667H15V20H8.33329C7.41663 20 6.66663 20.75 6.66663 21.6667C6.66663 22.5833 7.41663 23.3333 8.33329 23.3333H10.8333C10.8333 24.25 11.5833 25 12.5 25C13.4166 25 14.1666 24.25 14.1666 23.3333H16.6666C17.5833 23.3333 18.3333 22.5833 18.3333 21.6667ZM31.4666 22.0333L23.2166 30.2833L19.6833 26.75C19.3717 26.4384 18.949 26.2633 18.5083 26.2633C18.0676 26.2633 17.6449 26.4384 17.3333 26.75C17.0217 27.0616 16.8466 27.4843 16.8466 27.925C16.8466 28.3657 17.0217 28.7884 17.3333 29.1L22.05 33.8167C22.7 34.4667 23.75 34.4667 24.4 33.8167L33.8333 24.3833C33.9878 24.2291 34.1104 24.046 34.194 23.8444C34.2776 23.6428 34.3207 23.4266 34.3207 23.2083C34.3207 22.9901 34.2776 22.7739 34.194 22.5723C34.1104 22.3707 33.9878 22.1875 33.8333 22.0333C33.1666 21.3833 32.1166 21.3833 31.4666 22.0333Z" fill="#FFB21E"/>
</svg>
