<svg width="40" height="40" viewBox="0 0 40 40" fill="none" xmlns="http://www.w3.org/2000/svg">
<path d="M33.5353 29.8281C32.7984 28.0827 31.729 26.4973 30.3868 25.1602C29.0487 23.8192 27.4635 22.75 25.7189 22.0117C25.7032 22.0039 25.6876 22 25.672 21.9922C28.1056 20.2344 29.6876 17.3711 29.6876 14.1406C29.6876 8.78906 25.3517 4.45312 20.0001 4.45312C14.6485 4.45312 10.3126 8.78906 10.3126 14.1406C10.3126 17.3711 11.8946 20.2344 14.3282 21.9961C14.3126 22.0039 14.297 22.0078 14.2813 22.0156C12.5313 22.7539 10.961 23.8125 9.61338 25.1641C8.2724 26.5022 7.20324 28.0874 6.46494 29.832C5.73964 31.5401 5.34846 33.3713 5.3126 35.2266C5.31156 35.2683 5.31887 35.3097 5.3341 35.3486C5.34934 35.3874 5.3722 35.4228 5.40132 35.4526C5.43044 35.4825 5.46524 35.5062 5.50368 35.5224C5.54211 35.5386 5.58339 35.5469 5.6251 35.5469H7.96885C8.14072 35.5469 8.27744 35.4102 8.28135 35.2422C8.35947 32.2266 9.57041 29.4023 11.711 27.2617C13.9259 25.0469 16.8673 23.8281 20.0001 23.8281C23.1329 23.8281 26.0743 25.0469 28.2892 27.2617C30.4298 29.4023 31.6407 32.2266 31.7189 35.2422C31.7228 35.4141 31.8595 35.5469 32.0314 35.5469H34.3751C34.4168 35.5469 34.4581 35.5386 34.4965 35.5224C34.535 35.5062 34.5698 35.4825 34.5989 35.4526C34.628 35.4228 34.6509 35.3874 34.6661 35.3486C34.6813 35.3097 34.6886 35.2683 34.6876 35.2266C34.6485 33.3594 34.2618 31.543 33.5353 29.8281ZM20.0001 20.8594C18.2071 20.8594 16.5196 20.1602 15.2501 18.8906C13.9806 17.6211 13.2813 15.9336 13.2813 14.1406C13.2813 12.3477 13.9806 10.6602 15.2501 9.39062C16.5196 8.12109 18.2071 7.42188 20.0001 7.42188C21.7931 7.42188 23.4806 8.12109 24.7501 9.39062C26.0196 10.6602 26.7188 12.3477 26.7188 14.1406C26.7188 15.9336 26.0196 17.6211 24.7501 18.8906C23.4806 20.1602 21.7931 20.8594 20.0001 20.8594Z" fill="#1254FF"/>
</svg>
